<svg xmlns="http://www.w3.org/2000/svg" viewBox="0 0 800 500" role="img" aria-label="MazadCars">
  <defs>
    <radialGradient id="glow" cx="22%" cy="0%" r="85%">
      <stop offset="0" stop-color="#5be6c4" stop-opacity="0.18"/>
      <stop offset="60%" stop-color="#5be6c4" stop-opacity="0"/>
    </radialGradient>
    <pattern id="dots" width="26" height="26" patternUnits="userSpaceOnUse">
      <circle cx="1.5" cy="1.5" r="1.4" fill="#ffffff" opacity="0.05"/>
    </pattern>
  </defs>
  <rect width="800" height="500" fill="#0a0e14"/>
  <rect width="800" height="500" fill="url(#dots)"/>
  <rect width="800" height="500" fill="url(#glow)"/>
  <g transform="translate(400 235)" fill="none" stroke="#5be6c4" stroke-width="7" stroke-linecap="round" stroke-linejoin="round">
    <path d="M -150 28 l 24 -64 q 8 -20 30 -20 h 92 q 22 0 30 20 l 24 64"/>
    <path d="M -168 28 h 336 a 14 14 0 0 1 14 14 v 26 a 10 10 0 0 1 -10 10 h -30"/>
    <path d="M -168 28 a 14 14 0 0 0 -14 14 v 26 a 10 10 0 0 0 10 10 h 30"/>
    <circle cx="-104" cy="78" r="30" fill="#0a0e14"/>
    <circle cx="104" cy="78" r="30" fill="#0a0e14"/>
    <path d="M -150 -36 h 300" stroke="#2b3645"/>
  </g>
  <g transform="translate(540 150) rotate(35)" stroke="#f2a65a" stroke-width="9" stroke-linecap="round">
    <rect x="-34" y="-12" width="68" height="24" rx="6" fill="#0a0e14"/>
    <path d="M 0 12 V 64"/>
  </g>
  <text x="400" y="440" text-anchor="middle" fill="#5c6677" font-family="ui-monospace,Menlo,monospace" font-size="22" letter-spacing="4">// car auctions · logistics</text>
</svg>
